<?xml version="1.0" standalone="no"?>
<!DOCTYPE svg PUBLIC "-//W3C//DTD SVG 20010904//EN"
 "http://www.w3.org/TR/2001/REC-SVG-20010904/DTD/svg10.dtd">
<svg version="1.0" xmlns="http://www.w3.org/2000/svg"
 width="400.000000pt" height="400.000000pt" viewBox="0 0 400.000000 400.000000"
 preserveAspectRatio="xMidYMid meet">
<metadata>
Created by potrace 1.11, written by Peter Selinger 2001-2013
</metadata>
<g transform="translate(0.000000,400.000000) scale(0.100000,-0.100000)"
fill="#000000" stroke="none">
<path d="M0 2000 l0 -2000 2000 0 2000 0 0 2000 0 2000 -2000 0 -2000 0 0
-2000z m2985 1273 c7 -185 8 -192 29 -196 11 -3 191 -24 399 -48 207 -24 377
-46 377 -49 0 -3 -48 -53 -107 -112 l-108 -106 -265 29 c-146 15 -275 28 -287
28 -22 1 -23 -2 -23 -106 l0 -108 105 -105 105 -105 -95 -95 -95 -95 -407 408
-408 407 95 95 95 95 188 -187 189 -188 -7 369 -7 368 103 104 104 104 6 -157
c4 -87 10 -244 14 -350z m-915 -698 l-130 -130 330 -330 330 -330 -95 -95 -95
-95 -330 330 -330 330 -130 -130 -130 -130 -77 78 -78 77 355 355 355 355 77
-77 78 -78 -130 -130z m-55 -1337 c19 -18 18 -19 -70 -108 l-90 -90 -242 242
c-168 168 -243 237 -243 223 0 -11 14 -172 30 -359 17 -186 30 -339 28 -340
-2 -2 -142 8 -313 20 -171 13 -328 23 -350 23 l-40 1 235 -235 235 -235 -90
-90 -90 -90 -407 407 -408 408 78 78 78 78 428 -76 c235 -42 429 -75 430 -73
2 2 -32 194 -76 428 l-78 424 77 78 77 78 391 -387 c214 -213 399 -395 410
-405z"/>
</g>
</svg>
