<svg width="74" height="83" viewBox="0 0 74 83" fill="none" xmlns="http://www.w3.org/2000/svg">
<path d="M64.6312 50.0706H57.1111V6.92135C57.0989 6.5554 57.0147 6.19545 56.8633 5.86208C56.7119 5.5287 56.4962 5.22843 56.2287 4.97845C55.9612 4.72846 55.647 4.53366 55.3042 4.40518C54.9613 4.2767 54.5965 4.21707 54.2305 4.22968H13.8791C13.5132 4.21707 13.1484 4.2767 12.8055 4.40518C12.4627 4.53366 12.1485 4.72846 11.881 4.97845C11.6134 5.22843 11.3978 5.5287 11.2464 5.86208C11.095 6.19545 11.0108 6.5554 10.9986 6.92135V50.0706H2.36873C1.9926 50.0415 1.6169 50.1324 1.29571 50.3303C0.974527 50.5282 0.724411 50.8229 0.581361 51.172C0.438311 51.5211 0.409703 51.9066 0.499653 52.273C0.589604 52.6394 0.793475 52.9678 1.08193 53.2109L32.225 79.3366C32.5861 79.6279 33.036 79.7868 33.5 79.7868C33.9639 79.7868 34.4139 79.6279 34.775 79.3366L65.918 53.2109C66.2065 52.9678 66.4104 52.6394 66.5003 52.273C66.5903 51.9066 66.5616 51.5211 66.4186 51.172C66.2755 50.8229 66.0254 50.5282 65.7042 50.3303C65.3831 50.1324 65.0074 50.0415 64.6312 50.0706V50.0706ZM57.5479 54.5095L33.5 74.5554L9.51109 54.4859H15.4139V8.65677H52.6132V54.4859" fill="black"/>
<path d="M36.4648 42.5096H31.7258V46H28.017V42.5096H25V39.4423H28.017V37.8255H25V34.7582H28.017V24H36.2146C38.5791 24 40.4679 24.6346 41.8807 25.9038C43.2936 27.163 44 28.8402 44 30.9354C44 33.071 43.3279 34.7482 41.9837 35.967C40.6396 37.1758 38.7705 37.7953 36.3765 37.8255H31.7258V39.4423H36.4648V42.5096ZM31.7258 34.7582H36.1557C37.4901 34.7582 38.5105 34.4409 39.2169 33.8063C39.9233 33.1717 40.2765 32.2248 40.2765 30.9657C40.2765 29.8375 39.9282 28.9158 39.2316 28.2005C38.5448 27.4853 37.5931 27.1126 36.3765 27.0824H31.7258V34.7582Z" fill="#F61019"/>
</svg>
