<svg width="74" height="83" viewBox="0 0 74 83" fill="none" xmlns="http://www.w3.org/2000/svg">
<path d="M65.0167 10.7639H61.5583V5H57.2239V10.7639H16.4271V5H12.0926V10.7639H8.6343C6.34528 10.7669 4.15088 11.6776 2.5323 13.2962C0.913713 14.9148 0.00305 17.1092 0 19.3982V70.0512C0.00305 72.3403 0.913713 74.5347 2.5323 76.1533C4.15088 77.7718 6.34528 78.6825 8.6343 78.6856H65.0051C67.2942 78.6825 69.4886 77.7718 71.1071 76.1533C72.7257 74.5347 73.6364 72.3403 73.6394 70.0512V19.3982C73.6364 17.1112 72.7273 14.9185 71.1112 13.3002C69.4951 11.682 67.3037 10.77 65.0167 10.7639ZM69.2819 71.2501C69.2911 71.6512 69.2206 72.05 69.0745 72.4236C68.9284 72.7972 68.7097 73.1381 68.4309 73.4265C68.1521 73.715 67.8189 73.9452 67.4505 74.1039C67.0821 74.2626 66.6858 74.3466 66.2847 74.3511H8.53055C6.88208 74.3511 4.38055 72.9793 4.38055 71.2847V30.6724H69.2819V71.2501ZM69.2819 26.2918H4.38055V18.3837C4.34599 17.5504 4.64122 16.737 5.20226 16.1199C5.7633 15.5028 6.54494 15.1316 7.37778 15.0868H12.0811V21.6922H16.4156V15.0061L57.2239 15.0868V21.6922H61.5699V15.0868H66.2847C67.1176 15.1316 67.8992 15.5028 68.4602 16.1199C69.0213 16.737 69.3165 17.5504 69.2819 18.3837V26.2918Z" fill="#0C0C0C"/>
<path d="M16.6921 38.1074H10.9282V43.8713H16.6921V38.1074Z" fill="black"/>
<path d="M28.197 38.1074H22.4331V43.8713H28.197V38.1074Z" fill="black"/>
<path d="M39.7131 38.1074H33.9492V43.8713H39.7131V38.1074Z" fill="black"/>
<path d="M51.2177 38.1074H45.4539V43.8713H51.2177V38.1074Z" fill="black"/>
<path d="M62.7224 38.1074H56.9585V43.8713H62.7224V38.1074Z" fill="#F61019"/>
<path d="M16.6921 49.6123H10.9282V55.3762H16.6921V49.6123Z" fill="black"/>
<path d="M28.197 49.6123H22.4331V55.3762H28.197V49.6123Z" fill="black"/>
<path d="M39.7131 49.6123H33.9492V55.3762H39.7131V49.6123Z" fill="black"/>
<path d="M51.2177 49.6123H45.4539V55.3762H51.2177V49.6123Z" fill="black"/>
<path d="M16.6921 61.1284H10.9282V66.8923H16.6921V61.1284Z" fill="black"/>
<path d="M28.197 61.1284H22.4331V66.8923H28.197V61.1284Z" fill="black"/>
<path d="M39.7131 61.1284H33.9492V66.8923H39.7131V61.1284Z" fill="black"/>
<path d="M51.2177 61.1284H45.4539V66.8923H51.2177V61.1284Z" fill="black"/>
<path d="M62.7224 49.6123H56.9585V55.3762H62.7224V49.6123Z" fill="#F61019"/>
</svg>
