<svg width="74" height="83" viewBox="0 0 74 83" fill="none" xmlns="http://www.w3.org/2000/svg">
<path d="M69.8583 68.7169L57.9651 47.8207C58.5661 47.5206 59.0631 47.0468 59.3915 46.4607C59.7199 45.8746 59.8645 45.2034 59.8066 44.534L58.9242 37.1423L64.0396 31.8352C64.5957 31.2369 64.9112 30.4542 64.9253 29.6375C64.9395 28.8207 64.6514 28.0276 64.1163 27.4104L59.0009 21.9497L60.0368 14.4813C60.0968 13.6914 59.8718 12.9062 59.4026 12.2681C58.9333 11.6299 58.2509 11.181 57.4791 11.0028L50.1641 9.55775L46.6345 2.98451C46.2794 2.24964 45.6537 1.68074 44.8884 1.39704C44.1231 1.11335 43.2778 1.13687 42.5295 1.46269H42.4527L35.7388 4.60863L29.1144 1.37317C28.3709 0.981319 27.5041 0.894178 26.6974 1.13019C25.9044 1.3774 25.242 1.92938 24.8559 2.6648L21.2368 9.1741L13.9218 10.4529C13.1058 10.6117 12.3797 11.0727 11.8889 11.7437C11.3981 12.4147 11.1787 13.2463 11.2746 14.0721L12.157 21.4638L7.04163 26.7709C6.48547 27.3692 6.17 28.1519 6.15584 28.9686C6.14168 29.7854 6.42982 30.5785 6.9649 31.1957L12.0803 36.6564L11.0316 44.1248C10.9659 44.8375 11.1337 45.5522 11.5097 46.1612C11.8857 46.7702 12.4495 47.2404 13.1161 47.501L1.21011 68.7169C1.07234 68.9631 1 69.2405 1 69.5226C1 69.8047 1.07234 70.0821 1.21011 70.3283C1.34886 70.5479 1.53645 70.7326 1.75826 70.8679C1.98008 71.0032 2.23013 71.0855 2.48895 71.1084H15.3669L21.2368 81.3391C21.3813 81.5753 21.5817 81.7724 21.8203 81.9129C22.0589 82.0534 22.3284 82.133 22.6051 82.1448C22.8839 82.1426 23.1572 82.067 23.3974 81.9255C23.6376 81.7841 23.8363 81.5818 23.9735 81.3391L35.483 61.7217L46.9926 81.5693C47.1345 81.8078 47.3343 82.0068 47.5735 82.1476C47.8127 82.2884 48.0835 82.3666 48.361 82.3749C48.639 82.3773 48.9123 82.3034 49.1512 82.1614C49.3902 82.0194 49.5857 81.8146 49.7165 81.5693L55.5481 71.1084H68.3365C68.6158 71.1089 68.8901 71.0344 69.1308 70.8926C69.3715 70.7509 69.5697 70.5472 69.7048 70.3027C69.9026 70.0853 70.0195 69.8064 70.0359 69.5129C70.0522 69.2195 69.9669 68.9293 69.7943 68.6914L69.8583 68.7169ZM22.6819 77.3107L17.6944 68.7169C17.5545 68.4794 17.357 68.2809 17.12 68.1401C16.883 67.9993 16.6143 67.9205 16.3388 67.9113H5.23846L16.3388 48.3066L20.917 49.1123L24.4467 55.6216C24.8017 56.3565 25.4275 56.9254 26.1928 57.2091C26.958 57.4928 27.8034 57.4692 28.5517 57.1434H28.6285L31.9023 55.6216L33.5008 58.435L22.6819 77.3107ZM27.3368 54.2916H27.2601L23.7305 47.5777C23.4996 47.1664 23.1759 46.8146 22.7852 46.5504C22.3945 46.2863 21.9475 46.1169 21.4797 46.0559L14.088 44.6875L15.1239 37.2958C15.2049 36.8233 15.1754 36.3385 15.0379 35.8792C14.9003 35.42 14.6584 34.9988 14.331 34.6486L9.34354 29.1752L14.4589 23.8808C14.7959 23.5364 15.046 23.1166 15.1884 22.6562C15.3307 22.1958 15.3612 21.7081 15.2774 21.2336L14.395 13.9314C14.3991 13.8684 14.4265 13.8092 14.4717 13.7651L21.7867 12.4863C22.2565 12.4024 22.702 12.2155 23.0911 11.9391C23.4802 11.6628 23.8034 11.3037 24.0374 10.8877L27.6693 4.35287L34.2554 7.56276C34.6994 7.80229 35.196 7.92769 35.7005 7.92769C36.2049 7.92769 36.7015 7.80229 37.1455 7.56276L43.8211 4.50633H43.8978L47.4274 11.1819C47.6491 11.585 47.9604 11.9319 48.3374 12.1957C48.7143 12.4596 49.1468 12.6334 49.6014 12.7037L56.9164 14.1488L55.8678 21.5533C55.7924 22.0267 55.8257 22.5111 55.9653 22.9698C56.1049 23.4284 56.3471 23.8493 56.6734 24.2005L61.7888 29.6611L56.6734 34.9683C56.3215 35.304 56.057 35.7208 55.9032 36.1822C55.7494 36.6437 55.7109 37.1358 55.791 37.6155L56.6734 45.0072L49.4352 46.2221C48.9654 46.3061 48.5199 46.4929 48.1308 46.7693C47.7416 47.0457 47.4185 47.4047 47.1844 47.8207L43.5781 54.33L36.9793 51.1201C36.5353 50.8805 36.0387 50.7551 35.5342 50.7551C35.0297 50.7551 34.5331 50.8805 34.0891 51.1201L27.3368 54.2916ZM54.6657 67.9113C54.3863 67.9108 54.112 67.9853 53.8713 68.127C53.6306 68.2687 53.4324 68.4724 53.2973 68.7169L48.3226 77.5026L37.0177 57.9491C36.9539 57.7374 36.8398 57.5443 36.6852 57.3864L34.9204 54.2532L35.483 54.0103L42.0691 57.2201C42.5218 57.4451 43.0215 57.5591 43.527 57.5527C44.0959 57.5624 44.6568 57.4178 45.15 57.134C45.6431 56.8503 46.0501 56.4381 46.3276 55.9413L49.9467 49.432L54.768 48.5496L65.7532 67.9113H54.6657Z" fill="#0C0C0C" stroke="#0C0C0C" stroke-miterlimit="10"/>
<path d="M50.4839 29.3418C50.4839 26.3699 49.6026 23.4647 47.9515 20.9936C46.3004 18.5225 43.9536 16.5966 41.2079 15.4593C38.4622 14.3219 35.4409 14.0244 32.526 14.6042C29.6112 15.184 26.9338 16.6151 24.8323 18.7166C22.7308 20.818 21.2997 23.4955 20.7199 26.4103C20.1401 29.3251 20.4377 32.3465 21.575 35.0922C22.7123 37.8379 24.6383 40.1847 27.1093 41.8358C29.5804 43.4869 32.4856 44.3682 35.4575 44.3682C39.4397 44.3581 43.2558 42.7717 46.0716 39.9559C48.8874 37.1401 50.4738 33.3239 50.4839 29.3418ZM35.4575 42.1942C32.9134 42.1916 30.4273 41.434 28.314 40.0174C26.2008 38.6008 24.5555 36.5889 23.5867 34.2365C22.6178 31.884 22.3688 29.297 22.8714 26.803C23.3739 24.309 24.6054 22.0203 26.4097 20.2267C28.2141 18.4331 30.5101 17.2154 33.0071 16.7278C35.504 16.2401 38.0896 16.5045 40.4361 17.4875C42.7827 18.4704 44.7847 20.1277 46.1887 22.2494C47.5927 24.371 48.3353 26.8617 48.3227 29.4058C48.2957 32.8024 46.9292 36.0511 44.5202 38.4458C42.1111 40.8405 38.8543 42.1875 35.4575 42.1942Z" fill="#F61019" stroke="#F61019" stroke-width="2" stroke-miterlimit="10"/>
</svg>
