<svg width="74" height="83" viewBox="0 0 74 83" fill="none" xmlns="http://www.w3.org/2000/svg">
<path d="M28.1271 49.59V50.353V57.7403C28.1158 57.8633 28.1158 57.9872 28.1271 58.1102C28.2407 58.622 28.5224 59.0793 28.9257 59.407C29.3291 59.7347 29.8302 59.9134 30.3467 59.9137H42.4581C43.0619 59.9137 43.6409 59.6701 44.0679 59.2365C44.4948 58.8029 44.7347 58.2148 44.7347 57.6015V49.59C44.7347 48.9768 44.4948 48.3887 44.0679 47.955C43.6409 47.5214 43.0619 47.2778 42.4581 47.2778H30.4037C29.7999 47.2778 29.2208 47.5214 28.7939 47.955C28.3669 48.3887 28.1271 48.9768 28.1271 49.59ZM36.0951 51.6247C36.31 51.6593 36.529 51.6593 36.7439 51.6247L40.4319 51.0351V55.5669H32.4298V51.0351H32.6461L36.0951 51.6247Z" fill="#F61019"/>
<path d="M70.7216 20.1911H52.9871C52.4646 16.4924 50.6482 13.1084 47.8702 10.6585C45.0922 8.20863 41.5384 6.85668 37.8593 6.8501H35.0022C31.3231 6.85668 27.7693 8.20863 24.9913 10.6585C22.2133 13.1084 20.3969 16.4924 19.8744 20.1911H2.15136C1.58665 20.1911 1.04456 20.4165 0.642065 20.8188C0.239575 21.2211 0.00896361 21.768 0 22.3414V74.8963C0.00300851 75.4738 0.230996 76.0266 0.634128 76.4339C1.03726 76.8412 1.58275 77.0698 2.15136 77.0698H70.7216C71.2891 77.0698 71.8334 76.8408 72.2348 76.4332C72.6361 76.0256 72.8615 75.4728 72.8615 74.8963V22.3414C72.8555 21.769 72.6274 21.2221 72.2268 20.8195C71.8261 20.4169 71.2852 20.1911 70.7216 20.1911ZM35.0022 11.1969H37.8593C40.4026 11.2005 42.8661 12.0985 44.8312 13.7381C46.7964 15.3778 48.1418 17.658 48.6389 20.1911H24.2227C24.7198 17.658 26.0652 15.3778 28.0303 13.7381C29.9954 12.0985 32.459 11.2005 35.0022 11.1969ZM4.29133 24.538H68.5702V42.1333L36.4251 47.2779L4.29133 42.1333V24.538ZM35.9128 51.0351H32.4069H32.6232L36.0381 51.59C36.2568 51.6247 36.4795 51.6247 36.6983 51.59L40.3749 51.0004L35.9128 51.0351ZM40.3749 51.0004L68.5019 46.5033V72.7229H4.29133V46.538L32.4069 51.0351L40.3749 51.0004Z" fill="#0C0C0C"/>
</svg>
