<svg width="680" height="266" viewBox="0 0 680 266" fill="none" xmlns="http://www.w3.org/2000/svg">
<path d="M37.6547 169.013H0.0561523V146.857H102.445V169.013H64.8464V264.352H37.6547V169.013Z" fill="#E6ECF4"/>
<path d="M174.304 266.366C157.519 266.366 144.426 261.723 135.027 252.435C125.739 243.147 121.095 229.887 121.095 212.654V146.857H148.287V211.647C148.287 232.684 157.015 243.203 174.472 243.203C182.976 243.203 189.466 240.685 193.942 235.65C198.418 230.502 200.656 222.502 200.656 211.647V146.857H227.512V212.654C227.512 229.887 222.812 243.147 213.413 252.435C204.125 261.723 191.089 266.366 174.304 266.366Z" fill="#E6ECF4"/>
<path d="M355.149 146.857V264.352H332.825L274.245 193.016V264.352H247.389V146.857H269.881L328.293 218.193V146.857H355.149Z" fill="#E6ECF4"/>
<path d="M382.948 146.857H410.14V264.352H382.948V146.857Z" fill="#E6ECF4"/>
<path d="M545.784 146.857V264.352H523.46L464.88 193.016V264.352H438.024V146.857H460.516L518.928 218.193V146.857H545.784Z" fill="#E6ECF4"/>
<path d="M652.976 203.758H677.818V251.428C671.44 256.24 664.054 259.932 655.662 262.506C647.269 265.08 638.821 266.366 630.316 266.366C618.119 266.366 607.153 263.793 597.418 258.645C587.682 253.386 580.017 246.168 574.422 236.993C568.939 227.705 566.197 217.242 566.197 205.605C566.197 193.967 568.939 183.56 574.422 174.384C580.017 165.097 587.738 157.879 597.585 152.732C607.433 147.472 618.511 144.843 630.82 144.843C641.115 144.843 650.458 146.577 658.851 150.046C667.243 153.515 674.293 158.551 680 165.153L662.544 181.266C654.151 172.426 644.024 168.006 632.163 168.006C624.665 168.006 618.007 169.573 612.188 172.706C606.37 175.839 601.838 180.259 598.592 185.966C595.347 191.673 593.725 198.219 593.725 205.605C593.725 212.878 595.347 219.368 598.592 225.075C601.838 230.782 606.314 235.258 612.021 238.503C617.839 241.637 624.441 243.203 631.827 243.203C639.66 243.203 646.71 241.525 652.976 238.168V203.758Z" fill="#E6ECF4"/>
<path d="M120.908 117.495L120.74 47.166L73.4268 103.661L25.5133 48.5088V117.495H0V0H22.492L73.4625 73.0149L123.762 0H146.254L146.422 117.495H120.908Z" fill="#E6ECF4"/>
<path d="M265.409 22.1563H227.811V117.495H200.955V22.1563H163.524V0H265.409V22.1563Z" fill="#E6ECF4"/>
<path d="M331.607 71.3364L315.829 87.7858V117.495H288.805V0H315.829V54.8871L367.863 0H398.076L349.399 52.3693L400.929 117.495H369.205L331.607 71.3364Z" fill="#E6ECF4"/>
</svg>
