<svg width="18" height="18" viewBox="0 0 18 18" fill="none" xmlns="http://www.w3.org/2000/svg">
<g clip-path="url(#clip0)">
<path d="M17.7745 8.78938C18.1008 8.43053 18.0693 7.8805 17.7042 7.56119L9.65973 0.522268C9.29459 0.202957 8.70919 0.209646 8.35174 0.537348L0.279951 7.93648C-0.0774985 8.26418 -0.0950424 8.8135 0.241108 9.16291L0.44348 9.37367C0.77922 9.72308 1.32191 9.76474 1.65483 9.46644L2.25807 8.92622V16.8352C2.25807 17.3204 2.65126 17.7133 3.13615 17.7133H6.28255C6.76745 17.7133 7.16063 17.3204 7.16063 16.8352V11.3021H11.1739V16.8352C11.1669 17.3201 11.5139 17.7129 11.9988 17.7129H15.3332C15.8181 17.7129 16.2112 17.3201 16.2112 16.8348V9.03758C16.2112 9.03758 16.3779 9.18357 16.5834 9.36423C16.7886 9.54454 17.2196 9.39996 17.5459 9.04075L17.7745 8.78938Z" fill="white"/>
</g>
<defs>
<clipPath id="clip0">
<rect width="18" height="18" fill="white"/>
</clipPath>
</defs>
</svg>
