<svg width="36" height="36" viewBox="0 0 36 36" fill="none" xmlns="http://www.w3.org/2000/svg">
<path d="M29.8141 8.96003C29.686 8.47977 29.4258 7.96804 29.2333 7.52C26.9297 1.98399 21.8965 0 17.8324 0C12.3919 0 6.39985 3.64809 5.59985 11.1677V12.704C5.59985 12.7681 5.62195 13.344 5.65334 13.6321C6.10179 17.2157 8.92956 21.0244 11.0414 24.608C13.3135 28.4475 15.6712 32.2245 18.0069 35.9999C19.4472 33.5362 20.8823 31.04 22.2898 28.64C22.6734 27.9357 23.1187 27.2318 23.5027 26.5595C23.7586 26.1119 24.2476 25.6643 24.471 25.2478C26.743 21.0881 30.4 16.8962 30.4 12.768V11.0721C30.4001 10.6246 29.8454 9.05654 29.8141 8.96003ZM17.932 16.6722C16.3328 16.6722 14.5823 15.8725 13.7183 13.6642C13.5896 13.3126 13.5999 12.6081 13.5999 12.5436V11.5516C13.5999 8.73631 15.9904 7.45605 18.07 7.45605C20.6301 7.45605 22.6102 9.50433 22.6102 12.0645C22.6102 14.6246 20.4922 16.6722 17.932 16.6722Z" fill="#F61019"/>
</svg>
