<svg width="16" height="16" viewBox="0 0 16 16" fill="none" xmlns="http://www.w3.org/2000/svg">
<path d="M16 11.9999C16 12.3507 15.9013 12.6759 15.7433 12.962L10.6914 7.30966L15.6885 2.93765C15.8829 3.24614 16 3.6085 16 4.00009V11.9999ZM8.00002 8.33595L14.9533 2.252C14.668 2.09579 14.3467 2 14 2H1.99999C1.65296 2 1.33154 2.09579 1.04736 2.252L8.00002 8.33595ZM9.93854 7.96788L8.32904 9.37705C8.2349 9.45906 8.11767 9.50001 8.00002 9.50001C7.88229 9.50001 7.76507 9.45906 7.67092 9.37705L6.06107 7.96781L0.945304 13.6924C1.25194 13.8847 1.61131 14 1.99995 14H14C14.3886 14 14.7482 13.8847 15.0547 13.6924L9.93854 7.96788ZM0.311551 2.93762C0.117194 3.24611 0 3.60847 0 4.00009V12C0 12.3507 0.0982006 12.6759 0.256845 12.962L5.30811 7.3087L0.311551 2.93762Z" fill="#CBD4E0"/>
</svg>
