<svg width="18" height="18" viewBox="0 0 18 18" fill="none" xmlns="http://www.w3.org/2000/svg">
<g clip-path="url(#clip0)">
<path fill-rule="evenodd" clip-rule="evenodd" d="M14.7471 6.77343L17.7114 3.80904C18.3621 5.75402 17.9143 7.98566 16.3656 9.53443C14.8455 11.0546 12.6676 11.5139 10.7485 10.9153C10.685 10.996 10.6168 11.074 10.5424 11.1484L4.4543 17.2365C3.43542 18.2554 1.78351 18.2554 0.764641 17.2365C-0.254229 16.2177 -0.254229 14.5658 0.764641 13.547L6.85277 7.4589C6.92715 7.38452 7.00527 7.3162 7.08587 7.25273C6.48729 5.33367 6.94661 3.15571 8.46673 1.63559C10.0154 0.0868128 12.2472 -0.360998 14.1921 0.289662L11.2277 3.25405L12.154 5.84708L14.7471 6.77343ZM1.92888 16.0711C2.3194 16.4616 2.95257 16.4616 3.34309 16.0711C3.73362 15.6805 3.73362 15.0474 3.34309 14.6568C2.95257 14.2663 2.3194 14.2663 1.92888 14.6568C1.53836 15.0474 1.53836 15.6805 1.92888 16.0711Z" fill="white"/>
</g>
<defs>
<clipPath id="clip0">
<rect width="18" height="18" fill="white"/>
</clipPath>
</defs>
</svg>
