<svg width="51" height="57" viewBox="0 0 51 57" fill="none" xmlns="http://www.w3.org/2000/svg">
<path d="M41 32.5V5C41 2.79086 39.2091 1 37 1H5C2.79086 1 1 2.79086 1 5V47C1 49.2091 2.79086 51 5 51H29.5" stroke="#F61019" stroke-width="2"/>
<rect x="10" y="10" width="22" height="4" rx="1" stroke="#F61019" stroke-width="2"/>
<line x1="10" y1="21" x2="24" y2="21" stroke="#F61019" stroke-width="2" stroke-linecap="round" stroke-linejoin="round"/>
<line x1="10" y1="26" x2="28" y2="26" stroke="#F61019" stroke-width="2" stroke-linecap="round" stroke-linejoin="round"/>
<line x1="10" y1="31" x2="18" y2="31" stroke="#F61019" stroke-width="2" stroke-linecap="round" stroke-linejoin="round"/>
<g clip-path="url(#clip0)">
<path d="M48.7335 36.2095C48.7192 35.4535 48.7054 34.7394 48.7054 34.0485C48.7054 33.5072 48.2668 33.0684 47.7254 33.0684C43.5339 33.0684 40.3427 31.8639 37.6826 29.2775C37.3021 28.9074 36.6965 28.9076 36.3161 29.2775C33.6564 31.8639 30.4656 33.0684 26.2745 33.0684C25.7332 33.0684 25.2944 33.5072 25.2944 34.0485C25.2944 34.7395 25.2808 35.4539 25.2663 36.21C25.132 43.2451 24.948 52.88 36.6784 56.946C36.7824 56.982 36.8909 57.0001 36.9993 57.0001C37.1078 57.0001 37.2164 56.982 37.3203 56.946C49.0516 52.8799 48.8679 43.2447 48.7335 36.2095ZM36.9995 54.98C26.9391 51.3253 27.0912 43.3195 27.2262 36.2474C27.2343 35.823 27.2421 35.4116 27.2476 35.0083C31.1731 34.8426 34.3122 33.6531 36.9995 31.3121C39.6869 33.6531 42.8266 34.8427 46.7523 35.0083C46.7578 35.4115 46.7657 35.8226 46.7738 36.2467C46.9086 43.3191 47.0606 51.3252 36.9995 54.98Z" fill="#F61019"/>
<path d="M40.3743 39.5953L35.644 44.3254L33.6254 42.3069C33.2427 41.9243 32.6221 41.9243 32.2395 42.3069C31.8567 42.6898 31.8567 43.3102 32.2395 43.693L34.951 46.4045C35.1423 46.5958 35.3932 46.6915 35.644 46.6915C35.8947 46.6915 36.1456 46.5958 36.3369 46.4045L41.7601 40.9814C42.143 40.5987 42.143 39.9781 41.7603 39.5955C41.3776 39.2127 40.7571 39.2126 40.3743 39.5953Z" fill="#F61019"/>
</g>
<defs>
<clipPath id="clip0">
<rect width="28" height="28" fill="white" transform="translate(23 29)"/>
</clipPath>
</defs>
</svg>
