<svg width="98" height="54" viewBox="0 0 98 54" fill="none" xmlns="http://www.w3.org/2000/svg">
<path d="M5.47195 26.368H0.0959473V23.2H14.7359V26.368H9.35995V40H5.47195V26.368Z" fill="white"/>
<path d="M25.0106 40.288C22.6106 40.288 20.7386 39.624 19.3946 38.296C18.0666 36.968 17.4026 35.072 17.4026 32.608V23.2H21.2906V32.464C21.2906 35.472 22.5386 36.976 25.0346 36.976C26.2506 36.976 27.1786 36.616 27.8186 35.896C28.4586 35.16 28.7786 34.016 28.7786 32.464V23.2H32.6186V32.608C32.6186 35.072 31.9466 36.968 30.6026 38.296C29.2746 39.624 27.4106 40.288 25.0106 40.288Z" fill="white"/>
<path d="M50.8687 23.2V40H47.6767L39.3007 29.8V40H35.4607V23.2H38.6767L47.0287 33.4V23.2H50.8687Z" fill="white"/>
<path d="M54.8435 23.2H58.7315V40H54.8435V23.2Z" fill="white"/>
<path d="M78.1265 23.2V40H74.9345L66.5585 29.8V40H62.7185V23.2H65.9345L74.2865 33.4V23.2H78.1265Z" fill="white"/>
<path d="M93.4533 31.336H97.0053V38.152C96.0933 38.84 95.0373 39.368 93.8373 39.736C92.6373 40.104 91.4293 40.288 90.2133 40.288C88.4693 40.288 86.9013 39.92 85.5093 39.184C84.1173 38.432 83.0213 37.4 82.2213 36.088C81.4373 34.76 81.0453 33.264 81.0453 31.6C81.0453 29.936 81.4373 28.448 82.2213 27.136C83.0213 25.808 84.1253 24.776 85.5333 24.04C86.9413 23.288 88.5253 22.912 90.2853 22.912C91.7573 22.912 93.0933 23.16 94.2933 23.656C95.4933 24.152 96.5013 24.872 97.3173 25.816L94.8213 28.12C93.6213 26.856 92.1733 26.224 90.4773 26.224C89.4053 26.224 88.4533 26.448 87.6213 26.896C86.7893 27.344 86.1413 27.976 85.6773 28.792C85.2133 29.608 84.9813 30.544 84.9813 31.6C84.9813 32.64 85.2133 33.568 85.6773 34.384C86.1413 35.2 86.7813 35.84 87.5973 36.304C88.4293 36.752 89.3733 36.976 90.4293 36.976C91.5493 36.976 92.5573 36.736 93.4533 36.256V31.336Z" fill="white"/>
<path d="M17.3759 17L17.3519 6.944L10.5423 15.0637L3.73589 7.136V17H0.0878906V0.199997H3.30389L10.5919 10.64L17.7839 0.199997H20.9999L21.0239 17H17.3759Z" fill="white"/>
<path d="M38.0373 3.368H32.6613V17H28.8213V3.368H23.4693V0.199997H38.0373V3.368Z" fill="white"/>
<path d="M47.5025 10.4L45.2465 12.752V17H41.3825V0.199997H45.2465V8.048L52.6865 0.199997H57.0065L50.0465 7.688L57.4145 17H52.8785L47.5025 10.4Z" fill="white"/>
<path d="M3.39187 52.048C2.8372 52.048 2.33587 51.9253 1.88787 51.68C1.4452 51.4347 1.09587 51.096 0.839867 50.664C0.589201 50.2267 0.463867 49.7387 0.463867 49.2C0.463867 48.6613 0.589201 48.176 0.839867 47.744C1.09587 47.3067 1.44787 46.9653 1.89587 46.72C2.34387 46.4747 2.8452 46.352 3.39987 46.352C3.81587 46.352 4.19987 46.4213 4.55187 46.56C4.90387 46.6987 5.20253 46.9013 5.44787 47.168L5.07187 47.544C4.63453 47.1013 4.08253 46.88 3.41587 46.88C2.9732 46.88 2.57053 46.9813 2.20787 47.184C1.8452 47.3867 1.55987 47.664 1.35187 48.016C1.1492 48.368 1.04787 48.7627 1.04787 49.2C1.04787 49.6373 1.1492 50.032 1.35187 50.384C1.55987 50.736 1.8452 51.0133 2.20787 51.216C2.57053 51.4187 2.9732 51.52 3.41587 51.52C4.08787 51.52 4.63987 51.296 5.07187 50.848L5.44787 51.224C5.20253 51.4907 4.9012 51.696 4.54387 51.84C4.19187 51.9787 3.80787 52.048 3.39187 52.048Z" fill="white" fill-opacity="0.6"/>
<path d="M11.4304 51.488V52H7.47043V46.4H11.3104V46.912H8.06243V48.904H10.9584V49.408H8.06243V51.488H11.4304Z" fill="white" fill-opacity="0.6"/>
<path d="M15.6399 46.4C16.3545 46.4 16.9145 46.5707 17.3199 46.912C17.7252 47.2533 17.9279 47.7227 17.9279 48.32C17.9279 48.9173 17.7252 49.3867 17.3199 49.728C16.9145 50.064 16.3545 50.232 15.6399 50.232H14.1359V52H13.5439V46.4H15.6399ZM15.6239 49.712C16.1785 49.712 16.6025 49.592 16.8959 49.352C17.1892 49.1067 17.3359 48.7627 17.3359 48.32C17.3359 47.8667 17.1892 47.52 16.8959 47.28C16.6025 47.0347 16.1785 46.912 15.6239 46.912H14.1359V49.712H15.6239Z" fill="white" fill-opacity="0.6"/>
<path d="M23.2654 49.112C23.6548 49.192 23.9508 49.3493 24.1534 49.584C24.3561 49.8133 24.4574 50.1147 24.4574 50.488C24.4574 50.9733 24.2841 51.3467 23.9374 51.608C23.5961 51.8693 23.0921 52 22.4254 52H19.9454V46.4H22.2734C22.8708 46.4 23.3374 46.5227 23.6734 46.768C24.0094 47.0133 24.1774 47.368 24.1774 47.832C24.1774 48.1467 24.0974 48.4133 23.9374 48.632C23.7774 48.8453 23.5534 49.0053 23.2654 49.112ZM20.5294 48.936H22.2414C22.6734 48.936 23.0041 48.848 23.2334 48.672C23.4681 48.496 23.5854 48.24 23.5854 47.904C23.5854 47.568 23.4681 47.312 23.2334 47.136C23.0041 46.96 22.6734 46.872 22.2414 46.872H20.5294V48.936ZM22.4254 51.528C23.3908 51.528 23.8734 51.168 23.8734 50.448C23.8734 49.744 23.3908 49.392 22.4254 49.392H20.5294V51.528H22.4254Z" fill="white" fill-opacity="0.6"/>
<path d="M26.7376 46.4H27.3216V51.04L30.9056 46.4H31.4416V52H30.8576V47.368L27.2736 52H26.7376V46.4Z" fill="white" fill-opacity="0.6"/>
<path d="M36.5794 52.048C36.0247 52.048 35.5234 51.9253 35.0754 51.68C34.6327 51.4347 34.2834 51.096 34.0274 50.664C33.7767 50.2267 33.6514 49.7387 33.6514 49.2C33.6514 48.6613 33.7767 48.176 34.0274 47.744C34.2834 47.3067 34.6354 46.9653 35.0834 46.72C35.5314 46.4747 36.0327 46.352 36.5874 46.352C37.0034 46.352 37.3874 46.4213 37.7394 46.56C38.0914 46.6987 38.39 46.9013 38.6354 47.168L38.2594 47.544C37.822 47.1013 37.27 46.88 36.6034 46.88C36.1607 46.88 35.758 46.9813 35.3954 47.184C35.0327 47.3867 34.7474 47.664 34.5394 48.016C34.3367 48.368 34.2354 48.7627 34.2354 49.2C34.2354 49.6373 34.3367 50.032 34.5394 50.384C34.7474 50.736 35.0327 51.0133 35.3954 51.216C35.758 51.4187 36.1607 51.52 36.6034 51.52C37.2754 51.52 37.8274 51.296 38.2594 50.848L38.6354 51.224C38.39 51.4907 38.0887 51.696 37.7314 51.84C37.3794 51.9787 36.9954 52.048 36.5794 52.048Z" fill="white" fill-opacity="0.6"/>
<path d="M45.3379 46.4V52H44.7539V49.416H41.2499V52H40.6579V46.4H41.2499V48.896H44.7539V46.4H45.3379Z" fill="white" fill-opacity="0.6"/>
<path d="M50.3722 48.4C51.0336 48.4 51.5376 48.5493 51.8842 48.848C52.2362 49.1467 52.4122 49.584 52.4122 50.16C52.4122 50.7627 52.2256 51.2213 51.8522 51.536C51.4842 51.8453 50.9509 52 50.2522 52H48.0282V46.4H48.6122V48.4H50.3722ZM50.2362 51.528C50.7536 51.528 51.1456 51.4133 51.4122 51.184C51.6842 50.9547 51.8202 50.616 51.8202 50.168C51.8202 49.3093 51.2922 48.88 50.2362 48.88H48.6122V51.528H50.2362ZM53.3802 46.4H53.9642V52H53.3802V46.4Z" fill="white" fill-opacity="0.6"/>
<path d="M56.6486 46.4H57.2326V51.04L60.8166 46.4H61.3526V52H60.7686V47.368L57.1846 52H56.6486V46.4ZM58.9846 45.992C58.5846 45.992 58.2672 45.9013 58.0326 45.72C57.8032 45.5387 57.6859 45.2853 57.6806 44.96H58.1206C58.1259 45.1733 58.2059 45.3413 58.3606 45.464C58.5152 45.5867 58.7232 45.648 58.9846 45.648C59.2406 45.648 59.4459 45.5867 59.6006 45.464C59.7606 45.3413 59.8432 45.1733 59.8486 44.96H60.2886C60.2832 45.2853 60.1632 45.5387 59.9286 45.72C59.6939 45.9013 59.3792 45.992 58.9846 45.992Z" fill="white" fill-opacity="0.6"/>
<path d="M72.3761 51.488V53.312H71.8241V52H66.9361V46.4H67.5201V51.488H70.9041V46.4H71.4881V51.488H72.3761Z" fill="white" fill-opacity="0.6"/>
<path d="M78.3132 51.488V52H74.3532V46.4H78.1932V46.912H74.9452V48.904H77.8412V49.408H74.9452V51.488H78.3132Z" fill="white" fill-opacity="0.6"/>
<path d="M85.1067 46.4V52H84.5227V49.416H81.0187V52H80.4267V46.4H81.0187V48.896H84.5227V46.4H85.1067Z" fill="white" fill-opacity="0.6"/>
<path d="M91.461 46.912H89.493V52H88.909V46.912H86.941V46.4H91.461V46.912Z" fill="white" fill-opacity="0.6"/>
<path d="M95.3961 46.4C96.1108 46.4 96.6708 46.5707 97.0761 46.912C97.4815 47.2533 97.6841 47.7227 97.6841 48.32C97.6841 48.9173 97.4815 49.3867 97.0761 49.728C96.6708 50.064 96.1108 50.232 95.3961 50.232H93.8921V52H93.3001V46.4H95.3961ZM95.3801 49.712C95.9348 49.712 96.3588 49.592 96.6521 49.352C96.9455 49.1067 97.0921 48.7627 97.0921 48.32C97.0921 47.8667 96.9455 47.52 96.6521 47.28C96.3588 47.0347 95.9348 46.912 95.3801 46.912H93.8921V49.712H95.3801Z" fill="white" fill-opacity="0.6"/>
</svg>
