<svg width="98" height="54" viewBox="0 0 98 54" fill="none" xmlns="http://www.w3.org/2000/svg">
<path d="M5.47195 26.1679H0.0959473V22.9999H14.7359V26.1679H9.35995V39.7999H5.47195V26.1679Z" fill="#01060E"/>
<path d="M25.0106 40.0879C22.6106 40.0879 20.7386 39.4239 19.3946 38.0959C18.0666 36.7679 17.4026 34.8719 17.4026 32.4079V22.9999H21.2906V32.2639C21.2906 35.2719 22.5386 36.7759 25.0346 36.7759C26.2506 36.7759 27.1786 36.4159 27.8186 35.6959C28.4586 34.9599 28.7786 33.8159 28.7786 32.2639V22.9999H32.6186V32.4079C32.6186 34.8719 31.9466 36.7679 30.6026 38.0959C29.2746 39.4239 27.4106 40.0879 25.0106 40.0879Z" fill="#01060E"/>
<path d="M50.8687 22.9999V39.7999H47.6767L39.3007 29.5999V39.7999H35.4607V22.9999H38.6767L47.0287 33.1999V22.9999H50.8687Z" fill="#01060E"/>
<path d="M54.8435 22.9999H58.7315V39.7999H54.8435V22.9999Z" fill="#01060E"/>
<path d="M78.1265 22.9999V39.7999H74.9345L66.5585 29.5999V39.7999H62.7185V22.9999H65.9345L74.2865 33.1999V22.9999H78.1265Z" fill="#01060E"/>
<path d="M93.4533 31.1359H97.0053V37.9519C96.0933 38.6399 95.0373 39.1679 93.8373 39.5359C92.6373 39.9039 91.4293 40.0879 90.2133 40.0879C88.4693 40.0879 86.9013 39.7199 85.5093 38.9839C84.1173 38.2319 83.0213 37.1999 82.2213 35.8879C81.4373 34.5599 81.0453 33.0639 81.0453 31.3999C81.0453 29.7359 81.4373 28.2479 82.2213 26.9359C83.0213 25.6079 84.1253 24.5759 85.5333 23.8399C86.9413 23.0879 88.5253 22.7119 90.2853 22.7119C91.7573 22.7119 93.0933 22.9599 94.2933 23.4559C95.4933 23.9519 96.5013 24.6719 97.3173 25.6159L94.8213 27.9199C93.6213 26.6559 92.1733 26.0239 90.4773 26.0239C89.4053 26.0239 88.4533 26.2479 87.6213 26.6959C86.7893 27.1439 86.1413 27.7759 85.6773 28.5919C85.2133 29.4079 84.9813 30.3439 84.9813 31.3999C84.9813 32.4399 85.2133 33.3679 85.6773 34.1839C86.1413 34.9999 86.7813 35.6399 87.5973 36.1039C88.4293 36.5519 89.3733 36.7759 90.4293 36.7759C91.5493 36.7759 92.5573 36.5359 93.4533 36.0559V31.1359Z" fill="#01060E"/>
<path d="M17.3759 16.8L17.3519 6.744L10.5423 14.8637L3.73589 6.936V16.8H0.0878906V0H3.30389L10.5919 10.44L17.7839 0H20.9999L21.0239 16.8H17.3759Z" fill="#01060E"/>
<path d="M38.0373 3.168H32.6613V16.8H28.8213V3.168H23.4693V0H38.0373V3.168Z" fill="#01060E"/>
<path d="M47.5025 10.2L45.2465 12.552V16.8H41.3825V0H45.2465V7.848L52.6865 0H57.0065L50.0465 7.488L57.4145 16.8H52.8785L47.5025 10.2Z" fill="#01060E"/>
<path d="M3.39187 51.8483C2.8372 51.8483 2.33587 51.7256 1.88787 51.4803C1.4452 51.2349 1.09587 50.8963 0.839867 50.4643C0.589201 50.0269 0.463867 49.5389 0.463867 49.0003C0.463867 48.4616 0.589201 47.9763 0.839867 47.5443C1.09587 47.1069 1.44787 46.7656 1.89587 46.5203C2.34387 46.2749 2.8452 46.1523 3.39987 46.1523C3.81587 46.1523 4.19987 46.2216 4.55187 46.3603C4.90387 46.4989 5.20253 46.7016 5.44787 46.9683L5.07187 47.3443C4.63453 46.9016 4.08253 46.6803 3.41587 46.6803C2.9732 46.6803 2.57053 46.7816 2.20787 46.9843C1.8452 47.1869 1.55987 47.4643 1.35187 47.8163C1.1492 48.1683 1.04787 48.5629 1.04787 49.0003C1.04787 49.4376 1.1492 49.8323 1.35187 50.1843C1.55987 50.5363 1.8452 50.8136 2.20787 51.0163C2.57053 51.2189 2.9732 51.3203 3.41587 51.3203C4.08787 51.3203 4.63987 51.0963 5.07187 50.6483L5.44787 51.0243C5.20253 51.2909 4.9012 51.4963 4.54387 51.6403C4.19187 51.7789 3.80787 51.8483 3.39187 51.8483Z" fill="#0C0C0C" fill-opacity="0.6"/>
<path d="M11.4304 51.2883V51.8003H7.47043V46.2003H11.3104V46.7123H8.06243V48.7043H10.9584V49.2083H8.06243V51.2883H11.4304Z" fill="#0C0C0C" fill-opacity="0.6"/>
<path d="M15.6399 46.2003C16.3545 46.2003 16.9145 46.3709 17.3199 46.7123C17.7252 47.0536 17.9279 47.5229 17.9279 48.1203C17.9279 48.7176 17.7252 49.1869 17.3199 49.5283C16.9145 49.8643 16.3545 50.0323 15.6399 50.0323H14.1359V51.8003H13.5439V46.2003H15.6399ZM15.6239 49.5123C16.1785 49.5123 16.6025 49.3923 16.8959 49.1523C17.1892 48.9069 17.3359 48.5629 17.3359 48.1203C17.3359 47.6669 17.1892 47.3203 16.8959 47.0803C16.6025 46.8349 16.1785 46.7123 15.6239 46.7123H14.1359V49.5123H15.6239Z" fill="#0C0C0C" fill-opacity="0.6"/>
<path d="M23.2654 48.9123C23.6548 48.9923 23.9508 49.1496 24.1534 49.3843C24.3561 49.6136 24.4574 49.9149 24.4574 50.2883C24.4574 50.7736 24.2841 51.1469 23.9374 51.4083C23.5961 51.6696 23.0921 51.8003 22.4254 51.8003H19.9454V46.2003H22.2734C22.8708 46.2003 23.3374 46.3229 23.6734 46.5683C24.0094 46.8136 24.1774 47.1683 24.1774 47.6323C24.1774 47.9469 24.0974 48.2136 23.9374 48.4323C23.7774 48.6456 23.5534 48.8056 23.2654 48.9123ZM20.5294 48.7363H22.2414C22.6734 48.7363 23.0041 48.6483 23.2334 48.4723C23.4681 48.2963 23.5854 48.0403 23.5854 47.7043C23.5854 47.3683 23.4681 47.1123 23.2334 46.9363C23.0041 46.7603 22.6734 46.6723 22.2414 46.6723H20.5294V48.7363ZM22.4254 51.3283C23.3908 51.3283 23.8734 50.9683 23.8734 50.2483C23.8734 49.5443 23.3908 49.1923 22.4254 49.1923H20.5294V51.3283H22.4254Z" fill="#0C0C0C" fill-opacity="0.6"/>
<path d="M26.7376 46.2003H27.3216V50.8403L30.9056 46.2003H31.4416V51.8003H30.8576V47.1683L27.2736 51.8003H26.7376V46.2003Z" fill="#0C0C0C" fill-opacity="0.6"/>
<path d="M36.5794 51.8483C36.0247 51.8483 35.5234 51.7256 35.0754 51.4803C34.6327 51.2349 34.2834 50.8963 34.0274 50.4643C33.7767 50.0269 33.6514 49.5389 33.6514 49.0003C33.6514 48.4616 33.7767 47.9763 34.0274 47.5443C34.2834 47.1069 34.6354 46.7656 35.0834 46.5203C35.5314 46.2749 36.0327 46.1523 36.5874 46.1523C37.0034 46.1523 37.3874 46.2216 37.7394 46.3603C38.0914 46.4989 38.39 46.7016 38.6354 46.9683L38.2594 47.3443C37.822 46.9016 37.27 46.6803 36.6034 46.6803C36.1607 46.6803 35.758 46.7816 35.3954 46.9843C35.0327 47.1869 34.7474 47.4643 34.5394 47.8163C34.3367 48.1683 34.2354 48.5629 34.2354 49.0003C34.2354 49.4376 34.3367 49.8323 34.5394 50.1843C34.7474 50.5363 35.0327 50.8136 35.3954 51.0163C35.758 51.2189 36.1607 51.3203 36.6034 51.3203C37.2754 51.3203 37.8274 51.0963 38.2594 50.6483L38.6354 51.0243C38.39 51.2909 38.0887 51.4963 37.7314 51.6403C37.3794 51.7789 36.9954 51.8483 36.5794 51.8483Z" fill="#0C0C0C" fill-opacity="0.6"/>
<path d="M45.3379 46.2003V51.8003H44.7539V49.2163H41.2499V51.8003H40.6579V46.2003H41.2499V48.6963H44.7539V46.2003H45.3379Z" fill="#0C0C0C" fill-opacity="0.6"/>
<path d="M50.3722 48.2003C51.0336 48.2003 51.5376 48.3496 51.8842 48.6483C52.2362 48.9469 52.4122 49.3843 52.4122 49.9603C52.4122 50.5629 52.2256 51.0216 51.8522 51.3363C51.4842 51.6456 50.9509 51.8003 50.2522 51.8003H48.0282V46.2003H48.6122V48.2003H50.3722ZM50.2362 51.3283C50.7536 51.3283 51.1456 51.2136 51.4122 50.9843C51.6842 50.7549 51.8202 50.4163 51.8202 49.9683C51.8202 49.1096 51.2922 48.6803 50.2362 48.6803H48.6122V51.3283H50.2362ZM53.3802 46.2003H53.9642V51.8003H53.3802V46.2003Z" fill="#0C0C0C" fill-opacity="0.6"/>
<path d="M56.6486 46.2003H57.2326V50.8403L60.8166 46.2003H61.3526V51.8003H60.7686V47.1683L57.1846 51.8003H56.6486V46.2003ZM58.9846 45.7923C58.5846 45.7923 58.2672 45.7016 58.0326 45.5203C57.8032 45.3389 57.6859 45.0856 57.6806 44.7603H58.1206C58.1259 44.9736 58.2059 45.1416 58.3606 45.2643C58.5152 45.3869 58.7232 45.4483 58.9846 45.4483C59.2406 45.4483 59.4459 45.3869 59.6006 45.2643C59.7606 45.1416 59.8432 44.9736 59.8486 44.7603H60.2886C60.2832 45.0856 60.1632 45.3389 59.9286 45.5203C59.6939 45.7016 59.3792 45.7923 58.9846 45.7923Z" fill="#0C0C0C" fill-opacity="0.6"/>
<path d="M72.3761 51.2883V53.1123H71.8241V51.8003H66.9361V46.2003H67.5201V51.2883H70.9041V46.2003H71.4881V51.2883H72.3761Z" fill="#0C0C0C" fill-opacity="0.6"/>
<path d="M78.3132 51.2883V51.8003H74.3532V46.2003H78.1932V46.7123H74.9452V48.7043H77.8412V49.2083H74.9452V51.2883H78.3132Z" fill="#0C0C0C" fill-opacity="0.6"/>
<path d="M85.1067 46.2003V51.8003H84.5227V49.2163H81.0187V51.8003H80.4267V46.2003H81.0187V48.6963H84.5227V46.2003H85.1067Z" fill="#0C0C0C" fill-opacity="0.6"/>
<path d="M91.461 46.7123H89.493V51.8003H88.909V46.7123H86.941V46.2003H91.461V46.7123Z" fill="#0C0C0C" fill-opacity="0.6"/>
<path d="M95.3961 46.2003C96.1108 46.2003 96.6708 46.3709 97.0761 46.7123C97.4815 47.0536 97.6841 47.5229 97.6841 48.1203C97.6841 48.7176 97.4815 49.1869 97.0761 49.5283C96.6708 49.8643 96.1108 50.0323 95.3961 50.0323H93.8921V51.8003H93.3001V46.2003H95.3961ZM95.3801 49.5123C95.9348 49.5123 96.3588 49.3923 96.6521 49.1523C96.9455 48.9069 97.0921 48.5629 97.0921 48.1203C97.0921 47.6669 96.9455 47.3203 96.6521 47.0803C96.3588 46.8349 95.9348 46.7123 95.3801 46.7123H93.8921V49.5123H95.3801Z" fill="#0C0C0C" fill-opacity="0.6"/>
</svg>
