<svg width="36" height="36" viewBox="0 0 36 36" fill="none" xmlns="http://www.w3.org/2000/svg">
<path d="M26 0H10C4.47715 0 0 4.47715 0 10V26C0 31.5228 4.47715 36 10 36H26C31.5228 36 36 31.5228 36 26V10C36 4.47715 31.5228 0 26 0Z" fill="#25D366"/>
<g clip-path="url(#clip0)">
<path d="M30 17.6909C30 24.1477 24.7256 29.3819 18.2181 29.3819C16.1523 29.3819 14.2115 28.8539 12.5229 27.9272L6 30L8.12667 23.7275C7.05387 21.9659 6.436 19.8997 6.436 17.6909C6.436 11.2341 11.7109 6 18.2181 6C24.7261 6 30 11.2341 30 17.6909ZM18.2181 7.86187C12.7557 7.86187 8.31253 12.2712 8.31253 17.6909C8.31253 19.8416 9.0136 21.8333 10.1995 23.4536L8.96187 27.104L12.7685 25.8941C14.3325 26.9211 16.2061 27.52 18.2184 27.52C23.68 27.52 28.124 23.1112 28.124 17.6915C28.124 12.2717 23.6803 7.86187 18.2181 7.86187ZM24.1677 20.3835C24.0949 20.2643 23.9027 20.1923 23.6141 20.0491C23.3251 19.9059 21.9048 19.2123 21.6408 19.1171C21.376 19.0216 21.1829 18.9736 20.9907 19.2603C20.7984 19.5472 20.2448 20.1923 20.076 20.3835C19.9075 20.5752 19.7392 20.5992 19.4501 20.4557C19.1616 20.3125 18.2312 20.0096 17.128 19.0336C16.2696 18.2741 15.6899 17.3365 15.5213 17.0493C15.3531 16.7627 15.5037 16.6077 15.648 16.4651C15.7781 16.3365 15.9371 16.1304 16.0813 15.9632C16.2261 15.7957 16.2741 15.6765 16.3699 15.4851C16.4667 15.2939 16.4184 15.1267 16.3459 14.9829C16.2739 14.8397 15.6957 13.4296 15.4552 12.8557C15.2147 12.2824 14.9744 12.3779 14.8056 12.3779C14.6373 12.3779 14.4445 12.3539 14.252 12.3539C14.0595 12.3539 13.7464 12.4256 13.4816 12.7123C13.2171 12.9992 12.4712 13.6925 12.4712 15.1024C12.4712 16.5125 13.5056 17.8749 13.6504 18.0659C13.7947 18.2568 15.6477 21.2445 18.5837 22.392C21.52 23.5389 21.52 23.1563 22.0496 23.1083C22.5787 23.0605 23.7579 22.4152 23.9995 21.7464C24.2395 21.0765 24.2395 20.5029 24.1677 20.3835Z" fill="white"/>
</g>
<defs>
<clipPath id="clip0">
<rect width="24" height="24" fill="white" transform="translate(6 6)"/>
</clipPath>
</defs>
</svg>
