<svg width="36" height="36" viewBox="0 0 36 36" fill="none" xmlns="http://www.w3.org/2000/svg">
<rect width="36" height="36" rx="10" fill="#4A76A8"/>
<path d="M28.8754 24.04C28.847 23.9787 28.8205 23.9278 28.7958 23.8871C28.3881 23.1527 27.6089 22.2514 26.4588 21.1828L26.4345 21.1583L26.4223 21.1463L26.41 21.134H26.3977C25.8757 20.6364 25.5452 20.3018 25.4067 20.1305C25.1535 19.8042 25.0967 19.474 25.2351 19.1393C25.3329 18.8864 25.7003 18.3525 26.3364 17.5366C26.6709 17.1042 26.9359 16.7577 27.1316 16.4966C28.5429 14.6204 29.1547 13.4215 28.967 12.8994L28.8941 12.7774C28.8451 12.7039 28.7187 12.6367 28.515 12.5754C28.3109 12.5143 28.0499 12.5042 27.7317 12.5449L24.2079 12.5693C24.1509 12.549 24.0693 12.5509 23.9631 12.5754C23.8571 12.5999 23.804 12.6122 23.804 12.6122L23.7427 12.6429L23.694 12.6797C23.6532 12.704 23.6083 12.7469 23.5594 12.808C23.5106 12.869 23.4699 12.9406 23.4373 13.0222C23.0537 14.0092 22.6175 14.9268 22.1279 15.7751C21.8261 16.2809 21.5489 16.7193 21.2958 17.0905C21.043 17.4615 20.8309 17.7349 20.6597 17.9101C20.4883 18.0856 20.3336 18.2261 20.1946 18.3322C20.0559 18.4384 19.95 18.4833 19.8767 18.4669C19.8032 18.4505 19.734 18.4342 19.6685 18.4179C19.5543 18.3444 19.4625 18.2446 19.3933 18.1181C19.3238 17.9917 19.277 17.8326 19.2525 17.6409C19.2282 17.4491 19.2138 17.2841 19.2097 17.1453C19.2059 17.0068 19.2076 16.8108 19.2159 16.558C19.2244 16.305 19.2282 16.1338 19.2282 16.0441C19.2282 15.7341 19.2342 15.3976 19.2464 15.0346C19.2587 14.6716 19.2687 14.384 19.277 14.1721C19.2854 13.9601 19.2892 13.7357 19.2892 13.4991C19.2892 13.2625 19.2748 13.077 19.2464 12.9424C19.2183 12.8079 19.1751 12.6773 19.1182 12.5508C19.061 12.4244 18.9773 12.3266 18.8674 12.2571C18.7573 12.1878 18.6204 12.1328 18.4575 12.0919C18.0251 11.994 17.4746 11.9411 16.8056 11.9329C15.2884 11.9166 14.3136 12.0146 13.8813 12.2267C13.71 12.3163 13.555 12.4387 13.4164 12.5936C13.2695 12.7731 13.249 12.8711 13.355 12.8872C13.8445 12.9605 14.1911 13.1359 14.395 13.4133L14.4685 13.5602C14.5257 13.6662 14.5828 13.8539 14.6399 14.1231C14.6969 14.3922 14.7337 14.6899 14.7499 15.0161C14.7907 15.6116 14.7907 16.1214 14.7499 16.5455C14.7091 16.9698 14.6705 17.3001 14.6337 17.5367C14.5969 17.7732 14.5419 17.9649 14.4685 18.1117C14.395 18.2585 14.3461 18.3483 14.3216 18.3808C14.2971 18.4134 14.2767 18.4339 14.2605 18.442C14.1545 18.4826 14.0442 18.5033 13.9301 18.5033C13.8158 18.5033 13.6772 18.4461 13.5141 18.3319C13.351 18.2176 13.1818 18.0607 13.0064 17.8608C12.831 17.6609 12.6332 17.3815 12.4129 17.0226C12.1927 16.6638 11.9643 16.2396 11.7277 15.7502L11.532 15.3953C11.4096 15.167 11.2425 14.8345 11.0304 14.3982C10.8182 13.9617 10.6306 13.5395 10.4675 13.1316C10.4024 12.9603 10.3044 12.8299 10.1739 12.7402L10.1127 12.7034C10.072 12.6708 10.0066 12.6362 9.91698 12.5993C9.8272 12.5625 9.73351 12.5361 9.63554 12.5199L6.28299 12.5442C5.9404 12.5442 5.70795 12.6218 5.58555 12.7769L5.53657 12.8502C5.5121 12.891 5.49976 12.9562 5.49976 13.046C5.49976 13.1358 5.52423 13.2459 5.57321 13.3763C6.06262 14.5266 6.59485 15.6359 7.16989 16.7044C7.74492 17.773 8.24462 18.6338 8.66868 19.2859C9.09282 19.9386 9.52515 20.5546 9.96566 21.1335C10.4062 21.7127 10.6978 22.0839 10.8404 22.247C10.9833 22.4103 11.0955 22.5325 11.177 22.614L11.483 22.9076C11.6787 23.1034 11.9662 23.3379 12.3455 23.6112C12.7249 23.8845 13.145 24.1537 13.6058 24.419C14.0668 24.6839 14.603 24.9 15.2149 25.0672C15.8267 25.2346 16.4221 25.3017 17.0013 25.2693H18.4084C18.6938 25.2447 18.91 25.1549 19.0569 25.0001L19.1056 24.9387C19.1384 24.8901 19.169 24.8144 19.1973 24.7126C19.2259 24.6107 19.2401 24.4984 19.2401 24.3762C19.2318 24.0255 19.2585 23.7094 19.3195 23.428C19.3805 23.1467 19.45 22.9346 19.5278 22.7918C19.6055 22.6491 19.6931 22.5287 19.7907 22.431C19.8885 22.3332 19.9582 22.2739 19.9991 22.2535C20.0397 22.233 20.0722 22.2191 20.0966 22.2107C20.2924 22.1455 20.5228 22.2087 20.7881 22.4005C21.0533 22.5922 21.302 22.8289 21.5346 23.1102C21.7671 23.3918 22.0464 23.7077 22.3726 24.0584C22.6991 24.4092 22.9845 24.6699 23.2291 24.8415L23.4737 24.9883C23.6371 25.0863 23.8492 25.176 24.1103 25.2576C24.3709 25.3391 24.5992 25.3595 24.7953 25.3187L27.9275 25.2699C28.2373 25.2699 28.4783 25.2186 28.6493 25.1168C28.8207 25.0149 28.9225 24.9025 28.9553 24.7803C28.988 24.658 28.9898 24.5193 28.9615 24.3641C28.9325 24.2094 28.9039 24.1012 28.8754 24.04Z" fill="white"/>
</svg>
