<svg width="36" height="36" viewBox="0 0 36 36" fill="none" xmlns="http://www.w3.org/2000/svg">
<path d="M25.2754 0H10.7246C4.81103 0 0 4.81103 0 10.7246V25.2754C0 31.189 4.81103 36 10.7246 36H25.2754C31.189 36 36 31.189 36 25.2754V10.7246C35.9999 4.81103 31.1889 0 25.2754 0ZM32.3784 25.2754C32.3784 29.1982 29.1982 32.3784 25.2754 32.3784H10.7246C6.80175 32.3784 3.6216 29.1982 3.6216 25.2754V10.7246C3.6216 6.80169 6.80175 3.6216 10.7246 3.6216H25.2754C29.1982 3.6216 32.3784 6.80169 32.3784 10.7246V25.2754Z" fill="url(#paint0_linear)"/>
<path d="M18.0001 8.68896C12.8661 8.68896 8.68921 12.8658 8.68921 17.9998C8.68921 23.1337 12.8661 27.3107 18.0001 27.3107C23.1341 27.3107 27.311 23.1338 27.311 17.9998C27.311 12.8658 23.1341 8.68896 18.0001 8.68896ZM18.0001 23.6891C14.858 23.6891 12.3108 21.142 12.3108 17.9998C12.3108 14.8577 14.858 12.3106 18.0001 12.3106C21.1422 12.3106 23.6894 14.8577 23.6894 17.9998C23.6894 21.1419 21.1422 23.6891 18.0001 23.6891Z" fill="url(#paint1_linear)"/>
<path d="M27.329 10.99C28.5612 10.99 29.5601 9.9911 29.5601 8.75891C29.5601 7.52672 28.5612 6.52783 27.329 6.52783C26.0968 6.52783 25.0979 7.52672 25.0979 8.75891C25.0979 9.9911 26.0968 10.99 27.329 10.99Z" fill="url(#paint2_linear)"/>
<defs>
<linearGradient id="paint0_linear" x1="18" y1="35.8952" x2="18" y2="0.279618" gradientUnits="userSpaceOnUse">
<stop stop-color="#E09B3D"/>
<stop offset="0.3" stop-color="#C74C4D"/>
<stop offset="0.6" stop-color="#C21975"/>
<stop offset="1" stop-color="#7024C4"/>
</linearGradient>
<linearGradient id="paint1_linear" x1="18.0001" y1="35.8951" x2="18.0001" y2="0.279466" gradientUnits="userSpaceOnUse">
<stop stop-color="#E09B3D"/>
<stop offset="0.3" stop-color="#C74C4D"/>
<stop offset="0.6" stop-color="#C21975"/>
<stop offset="1" stop-color="#7024C4"/>
</linearGradient>
<linearGradient id="paint2_linear" x1="27.329" y1="35.8951" x2="27.329" y2="0.279506" gradientUnits="userSpaceOnUse">
<stop stop-color="#E09B3D"/>
<stop offset="0.3" stop-color="#C74C4D"/>
<stop offset="0.6" stop-color="#C21975"/>
<stop offset="1" stop-color="#7024C4"/>
</linearGradient>
</defs>
</svg>
