<svg width="36" height="36" viewBox="0 0 36 36" fill="none" xmlns="http://www.w3.org/2000/svg">
<path d="M26 0H10C4.47715 0 0 4.47715 0 10V26C0 31.5228 4.47715 36 10 36H26C31.5228 36 36 31.5228 36 26V10C36 4.47715 31.5228 0 26 0Z" fill="#665CAC"/>
<path d="M29.3853 12.6045L29.3782 12.5761C28.8031 10.2513 26.2105 7.75666 23.8297 7.23766L23.8028 7.23214C19.9518 6.49749 16.0472 6.49749 12.197 7.23214L12.1694 7.23766C9.78928 7.75666 7.19669 10.2513 6.62083 12.5761L6.61451 12.6045C5.90356 15.8512 5.90356 19.1436 6.61451 22.3903L6.62083 22.4187C7.17213 24.6443 9.57165 27.0243 11.8637 27.6789V30.274C11.8637 31.2132 13.0083 31.6745 13.6592 30.9968L16.2885 28.2636C16.8588 28.2956 17.4293 28.3133 17.9999 28.3133C19.9384 28.3133 21.8777 28.1301 23.8028 27.7627L23.8297 27.7572C26.2105 27.2382 28.8031 24.7436 29.3782 22.4188L29.3853 22.3904C30.0963 19.1436 30.0963 15.8512 29.3853 12.6045ZM27.3046 21.9195C26.9207 23.4362 24.9522 25.3218 23.3881 25.6701C21.3405 26.0595 19.2767 26.2259 17.2149 26.1688C17.1739 26.1677 17.1345 26.1836 17.1059 26.213C16.8133 26.5133 15.1861 28.1837 15.1861 28.1837L13.1441 30.2794C12.9949 30.435 12.7326 30.3292 12.7326 30.1143V25.8153C12.7326 25.7443 12.6819 25.6839 12.6121 25.6703C12.6117 25.6702 12.6113 25.6701 12.6109 25.67C11.0469 25.3217 9.07912 23.4361 8.69442 21.9194C8.05457 18.9848 8.05457 16.0099 8.69442 13.0752C9.07912 11.5586 11.0469 9.67297 12.6109 9.32461C16.187 8.64447 19.8128 8.64447 23.3881 9.32461C24.953 9.67297 26.9207 11.5586 27.3046 13.0752C27.9452 16.0099 27.9452 18.9849 27.3046 21.9195Z" fill="white"/>
<path d="M21.4023 23.9039C21.1619 23.8309 20.9327 23.7818 20.7199 23.6935C18.5147 22.7786 16.4852 21.5983 14.8776 19.7889C13.9634 18.76 13.2479 17.5984 12.643 16.3691C12.3562 15.7861 12.1145 15.1803 11.8681 14.5785C11.6434 14.0296 11.9743 13.4626 12.3228 13.0491C12.6497 12.661 13.0704 12.364 13.5261 12.1451C13.8817 11.9742 14.2325 12.0727 14.4923 12.3741C15.0538 13.0258 15.5695 13.7109 15.9871 14.4663C16.244 14.9309 16.1735 15.4989 15.7081 15.8151C15.5949 15.892 15.4919 15.9822 15.3865 16.069C15.2941 16.1451 15.2071 16.2219 15.1437 16.325C15.0279 16.5134 15.0224 16.7357 15.097 16.9406C15.6709 18.518 16.6384 19.7445 18.226 20.4052C18.48 20.5109 18.7352 20.6339 19.0279 20.5998C19.518 20.5425 19.6767 20.0049 20.0202 19.724C20.3559 19.4495 20.7849 19.4459 21.1466 19.6747C21.5083 19.9036 21.8589 20.1494 22.2075 20.3977C22.5496 20.6415 22.8902 20.88 23.2058 21.1579C23.5092 21.4251 23.6137 21.7757 23.4428 22.1384C23.13 22.8025 22.6749 23.3551 22.0183 23.7078C21.8329 23.8073 21.6114 23.8395 21.4023 23.9039C21.1619 23.8308 21.6114 23.8395 21.4023 23.9039Z" fill="white"/>
<path d="M18.0059 11.3855C20.8903 11.4663 23.2594 13.3806 23.7671 16.2322C23.8536 16.7181 23.8844 17.2149 23.9229 17.7081C23.9391 17.9155 23.8216 18.1126 23.5978 18.1153C23.3665 18.1181 23.2625 17.9246 23.2475 17.7172C23.2178 17.3068 23.1972 16.8945 23.1406 16.4875C22.842 14.3387 21.1287 12.5611 18.9899 12.1796C18.6681 12.1222 18.3387 12.1071 18.0127 12.0729C17.8066 12.0512 17.5366 12.0388 17.491 11.7826C17.4527 11.5678 17.634 11.3968 17.8385 11.3858C17.8941 11.3827 17.95 11.3852 18.0059 11.3855C20.8903 11.4663 17.95 11.3852 18.0059 11.3855Z" fill="white"/>
<path d="M22.3896 17.0684C22.3849 17.1044 22.3824 17.1891 22.3613 17.2689C22.2847 17.5585 21.8457 17.5947 21.7446 17.3024C21.7146 17.2157 21.7101 17.117 21.71 17.0237C21.7089 16.4127 21.5761 15.8024 21.2681 15.2709C20.9514 14.7245 20.4675 14.2653 19.9001 13.9874C19.5569 13.8193 19.1858 13.7149 18.8097 13.6527C18.6453 13.6255 18.4792 13.609 18.314 13.586C18.1138 13.5582 18.007 13.4306 18.0164 13.2334C18.0253 13.0485 18.1604 12.9156 18.3618 12.9269C19.0238 12.9645 19.6632 13.1076 20.2517 13.4192C21.4484 14.053 22.132 15.0534 22.3316 16.3892C22.3406 16.4497 22.3551 16.5096 22.3597 16.5704C22.371 16.7204 22.3781 16.8706 22.3896 17.0684C22.3849 17.1044 22.3781 16.8706 22.3896 17.0684Z" fill="white"/>
<path d="M20.5953 16.9984C20.354 17.0028 20.2249 16.8692 20.2 16.6479C20.1827 16.4936 20.169 16.3373 20.1322 16.1872C20.0597 15.8916 19.9026 15.6177 19.6539 15.4365C19.5365 15.351 19.4035 15.2887 19.2641 15.2485C19.0871 15.1973 18.9033 15.2114 18.7267 15.1681C18.5349 15.1211 18.4288 14.9658 18.4589 14.7859C18.4864 14.6221 18.6457 14.4943 18.8246 14.5073C19.9429 14.588 20.7422 15.1661 20.8563 16.4827C20.8643 16.5756 20.8738 16.6737 20.8532 16.7626C20.8179 16.9148 20.7052 16.991 20.5953 16.9984C20.354 17.0028 20.7052 16.991 20.5953 16.9984Z" fill="white"/>
</svg>
