<svg width="36" height="36" viewBox="0 0 36 36" fill="none" xmlns="http://www.w3.org/2000/svg">
<rect width="36" height="36" rx="10" fill="#37ADE0"/>
<path d="M14.5504 24.7499C13.9543 24.7499 14.0613 24.5395 13.8473 24.0205L12.1047 18.7466L22.927 12.5469L24.1957 12.8555L23.141 15.4924L14.5504 24.7499Z" fill="#CBE0EE"/>
<path d="M14.5508 24.7501C15.0094 24.7501 15.2081 24.5538 15.4679 24.3293C15.8653 23.9787 20.9708 19.4201 20.9708 19.4201L17.8372 18.7188L14.9329 20.4019L14.5508 24.6099V24.7501Z" fill="#A8C6DF"/>
<path d="M14.8565 20.4583L22.2547 25.4658C23.0955 25.8866 23.7069 25.6762 23.9209 24.7505L26.9322 11.7339C27.2379 10.5977 26.4583 10.0928 25.6482 10.4294L7.97795 16.6852C6.77038 17.1341 6.78567 17.7512 7.76395 18.0177L12.3038 19.3222L22.805 13.2487C23.2942 12.9682 23.7527 13.1225 23.3859 13.4311L14.8565 20.4583Z" fill="url(#paint0_linear)"/>
<defs>
<linearGradient id="paint0_linear" x1="19.288" y1="17.5626" x2="22.6551" y2="23.4337" gradientUnits="userSpaceOnUse">
<stop stop-color="#EFF7FC"/>
<stop offset="1" stop-color="white"/>
</linearGradient>
</defs>
</svg>
